<?xml version="1.0" standalone="no"?>
<!DOCTYPE svg PUBLIC "-//W3C//DTD SVG 20010904//EN"
 "http://www.w3.org/TR/2001/REC-SVG-20010904/DTD/svg10.dtd">
<svg version="1.0" xmlns="http://www.w3.org/2000/svg"
 width="200.000000pt" height="80.000000pt" viewBox="0 0 200.000000 80.000000"
 preserveAspectRatio="xMidYMid meet">

<g transform="translate(0.000000,80.000000) scale(0.100000,-0.100000)"
fill="#000000" stroke="none">
<path d="M311 712 c-107 -110 -149 -210 -129 -310 6 -26 10 -75 9 -109 -3
-102 40 -163 139 -198 54 -19 64 -12 56 38 -10 58 -53 133 -103 177 -24 21
-43 42 -43 47 0 13 91 150 124 186 14 15 29 27 35 27 12 0 100 -112 134 -171
l27 -46 -48 -40 c-56 -48 -97 -119 -107 -187 l-8 -49 29 7 c56 14 115 48 142
84 23 30 27 47 30 111 2 42 6 111 9 153 5 72 3 82 -26 144 -22 47 -52 87 -101
135 -38 38 -77 69 -86 69 -9 0 -46 -30 -83 -68z m152 -11 c69 -64 117 -153
124 -231 10 -101 -1 -104 -61 -14 -30 43 -72 96 -93 117 l-40 38 -51 -55 c-28
-31 -67 -84 -88 -118 -36 -58 -38 -60 -47 -37 -12 34 -1 103 28 166 25 55 138
183 161 183 7 0 37 -22 67 -49z m-160 -451 c27 -32 61 -112 56 -129 -7 -19
-92 31 -116 68 -16 24 -23 49 -23 83 l0 49 29 -20 c16 -12 41 -35 54 -51z
m269 -9 c-6 -40 -64 -103 -110 -119 -28 -10 -32 -9 -32 7 0 33 51 120 93 157
l41 38 7 -25 c3 -14 4 -40 1 -58z"/>
<path d="M1026 554 c-5 -14 -4 -15 9 -4 17 14 19 20 6 20 -5 0 -12 -7 -15 -16z"/>
<path d="M136 498 c-35 -60 -49 -129 -44 -201 9 -110 72 -197 177 -245 75 -35
184 -36 252 -3 135 65 205 194 180 329 -13 63 -64 175 -69 150 -2 -10 8 -47
22 -82 50 -124 27 -237 -66 -322 -62 -57 -121 -78 -205 -72 -170 12 -288 147
-269 307 4 30 14 69 22 86 16 30 35 95 28 95 -2 0 -14 -19 -28 -42z"/>
<path d="M779 512 c14 -26 14 -72 1 -106 -8 -23 -7 -26 13 -26 41 0 97 21 107
40 15 28 12 76 -6 91 -8 7 -40 15 -71 17 -53 4 -55 4 -44 -16z m89 -8 c24 -16
29 -53 12 -85 -8 -13 -21 -19 -45 -19 l-35 0 0 53 c0 30 3 57 7 60 11 12 37 8
61 -9z"/>
<path d="M978 519 c6 -7 12 -36 12 -64 0 -28 -6 -57 -12 -64 -11 -10 -2 -12
41 -9 30 2 56 8 58 14 2 6 -10 8 -32 6 -32 -4 -35 -2 -35 23 0 24 3 27 25 23
20 -4 25 -1 25 15 0 16 -3 18 -12 9 -21 -21 -38 -13 -38 18 0 25 4 30 23 30
13 0 29 -6 36 -12 11 -11 13 -10 9 2 -3 10 -21 16 -59 18 -43 3 -52 1 -41 -9z"/>
<path d="M1155 455 l0 -76 50 3 c41 2 50 6 52 23 2 11 0 14 -3 8 -3 -7 -21
-13 -40 -13 l-34 0 0 53 c0 29 5 58 12 65 9 9 7 12 -12 12 -24 0 -25 -2 -25
-75z"/>
<path d="M1330 515 c8 -10 11 -36 8 -75 -3 -45 -1 -60 9 -60 9 0 13 19 13 69
0 46 4 71 13 74 6 3 -3 6 -22 6 -29 1 -32 -1 -21 -14z"/>
<path d="M1459 511 c-17 -13 -23 -29 -23 -56 0 -60 62 -96 107 -62 15 10 11
12 -25 12 -36 0 -44 4 -55 27 -29 59 38 118 79 68 17 -21 18 -21 18 -2 0 36
-63 44 -101 13z"/>
<path d="M1660 472 c-13 -31 -27 -61 -32 -66 -13 -15 -10 -26 7 -26 9 0 15 6
14 13 -4 32 2 38 34 35 26 -2 32 -7 31 -25 0 -17 5 -23 21 -23 21 0 21 1 -6
58 -16 31 -29 62 -29 69 0 33 -20 16 -40 -35z m28 -30 c-27 -5 -32 2 -18 29
l13 22 13 -24 c11 -22 11 -24 -8 -27z"/>
<path d="M1800 513 c0 -14 2 -15 9 -4 5 8 16 11 25 8 20 -8 23 -106 4 -125 -9
-9 -7 -12 13 -12 23 0 24 1 21 70 -3 58 -1 70 12 70 8 0 20 -8 26 -17 10 -16
10 -16 8 2 -3 17 -12 20 -61 23 -49 3 -57 1 -57 -15z"/>
<path d="M1312 290 c0 -19 2 -27 5 -17 2 9 2 25 0 35 -3 9 -5 1 -5 -18z"/>
<path d="M1442 290 c0 -19 2 -27 5 -17 2 9 2 25 0 35 -3 9 -5 1 -5 -18z"/>
<path d="M1560 296 c0 -14 4 -27 8 -30 5 -3 6 8 4 25 -5 35 -12 38 -12 5z"/>
<path d="M1642 290 c0 -19 2 -29 5 -22 3 8 9 10 16 3 9 -7 12 -2 13 17 1 15
-1 21 -3 15 -7 -19 -21 -16 -26 5 -3 9 -5 1 -5 -18z"/>
<path d="M1780 317 c0 -2 15 -16 33 -33 l32 -29 -29 33 c-28 30 -36 37 -36 29z"/>
<path d="M1882 290 c0 -19 2 -27 5 -17 2 9 2 25 0 35 -3 9 -5 1 -5 -18z"/>
<path d="M1370 300 c0 -5 9 -14 20 -20 11 -6 20 -9 20 -8 0 2 -9 11 -20 21
-11 9 -20 13 -20 7z"/>
<path d="M1737 290 c3 -11 9 -22 13 -25 5 -3 6 4 3 15 -3 11 -9 22 -13 25 -5
3 -6 -4 -3 -15z"/>
<path d="M1253 293 c-7 -2 -13 -12 -12 -21 0 -11 2 -13 6 -4 4 10 8 10 21 0
15 -11 15 -11 5 3 -7 9 -10 19 -6 22 7 8 4 8 -14 0z"/>
<path d="M1520 281 c0 -6 4 -13 10 -16 6 -3 7 1 4 9 -7 18 -14 21 -14 7z"/>
</g>
</svg>
