<?xml version="1.0" standalone="no"?>
<!DOCTYPE svg PUBLIC "-//W3C//DTD SVG 20010904//EN"
 "http://www.w3.org/TR/2001/REC-SVG-20010904/DTD/svg10.dtd">
<svg version="1.0" xmlns="http://www.w3.org/2000/svg"
 width="2100.000000pt" height="1500.000000pt" viewBox="0 0 2100.000000 1500.000000"
 preserveAspectRatio="xMidYMid meet">

<g transform="translate(0.000000,1500.000000) scale(0.100000,-0.100000)"
fill="#000000" stroke="none">
<path d="M10430 10862 c-441 -293 -1018 -893 -1363 -1418 -340 -517 -518
-1014 -534 -1495 -11 -317 36 -572 159 -861 l51 -119 -26 -102 c-41 -158 -58
-278 -64 -452 -27 -794 423 -1379 1279 -1659 213 -70 435 -123 450 -108 17 17
23 290 9 412 -48 420 -236 844 -547 1235 -164 206 -524 543 -741 694 -18 12
-33 27 -33 32 0 17 99 226 168 354 275 512 668 1049 1129 1543 63 67 118 122
122 122 5 0 67 -64 139 -142 544 -595 960 -1173 1225 -1701 49 -98 88 -179 86
-181 -2 -1 -49 -32 -104 -68 -174 -113 -325 -237 -506 -418 -253 -251 -399
-443 -534 -703 -170 -327 -247 -629 -249 -979 -1 -102 1 -188 4 -191 8 -8 174
21 299 53 688 173 1173 553 1355 1060 114 315 125 680 33 1087 l-23 101 27 54
c61 121 123 333 155 533 23 137 26 494 5 630 -50 339 -150 644 -312 954 -262
501 -676 988 -1239 1455 -168 140 -372 296 -386 295 -5 0 -20 -8 -34 -17z
m201 -344 c809 -621 1314 -1307 1499 -2033 63 -246 75 -346 75 -620 -1 -181
-5 -265 -18 -340 -19 -107 -64 -285 -76 -298 -4 -4 -27 28 -51 70 -303 538
-670 1070 -1016 1473 -203 237 -547 569 -577 557 -6 -2 -68 -56 -137 -119
-451 -414 -953 -1093 -1340 -1816 l-93 -174 -19 49 c-34 86 -86 305 -98 415
-20 165 -8 431 24 596 142 712 662 1491 1456 2183 108 94 203 169 215 169 5 0
76 -51 156 -112z m-1577 -3820 c579 -412 938 -895 1066 -1438 24 -102 44 -310
31 -323 -21 -21 -322 73 -477 149 -317 154 -559 409 -675 709 -102 263 -135
606 -84 875 17 85 21 100 32 100 3 0 51 -32 107 -72z m2970 -13 c64 -275 60
-547 -14 -765 -61 -185 -147 -325 -289 -473 -158 -165 -356 -299 -589 -402
-103 -45 -301 -115 -327 -115 -19 0 -19 50 -1 190 46 340 190 658 446 980 105
133 332 359 475 473 139 112 267 199 276 190 3 -5 14 -39 23 -78z"/>
<path d="M8447 8745 c-456 -570 -716 -1362 -682 -2080 17 -374 83 -642 243
-985 261 -561 771 -1057 1336 -1300 519 -223 1115 -301 1625 -214 712 121
1398 565 1801 1164 473 705 581 1516 313 2362 -104 330 -300 730 -518 1056
-26 40 -49 71 -51 70 -1 -2 6 -29 17 -60 27 -82 48 -224 55 -378 l7 -135 47
-80 c335 -563 459 -1226 339 -1815 -91 -448 -332 -884 -697 -1261 -129 -135
-223 -214 -368 -311 -711 -481 -1575 -556 -2413 -211 -383 157 -626 316 -871
569 -186 192 -311 370 -426 609 -111 229 -189 481 -215 700 -21 165 -18 616 5
780 54 402 173 717 354 941 l49 60 6 125 c6 139 34 265 90 404 19 47 33 85 32
85 -1 0 -37 -43 -78 -95z"/>
</g>
</svg>
